<svg width="105" height="26" viewBox="0 0 105 26" fill="none" xmlns="http://www.w3.org/2000/svg">
<path d="M44.1229 3.44354H37.2937V21.1243H34.0238V3.44354H27.1656V0.578746H44.1229V3.44354Z" fill="#272728"/>
<path d="M46.473 21.1243V5.99003H49.6561V21.1243H46.473ZM46.473 3.50142V0H49.6561V3.50142H46.473Z" fill="#272728"/>
<path d="M76.6311 21.1243H73.448V12.6456C73.448 11.2373 73.2165 10.2052 72.7535 9.54932C72.2905 8.89341 71.6153 8.56545 70.7279 8.56545C69.8405 8.56545 69.0109 8.90305 68.2393 9.57826C67.4869 10.2342 66.9564 11.0926 66.6477 12.1537V21.1243H63.4646V12.6456C63.4646 11.2373 63.2331 10.2052 62.7701 9.54932C62.3071 8.89341 61.6415 8.56545 60.7734 8.56545C59.886 8.56545 59.0565 8.89341 58.2848 9.54932C57.5324 10.2052 56.9923 11.0637 56.6643 12.1247V21.1243H53.4812V5.99003H56.3749V9.02845C56.973 7.96741 57.7543 7.15717 58.7189 6.59771C59.7027 6.01897 60.8217 5.72959 62.0756 5.72959C63.3296 5.72959 64.3134 6.05755 65.0272 6.71346C65.7603 7.36937 66.2136 8.18927 66.3873 9.17313C67.0432 8.05422 67.8438 7.2054 68.7891 6.62665C69.7536 6.02861 70.8533 5.72959 72.0879 5.72959C72.9753 5.72959 73.7181 5.89357 74.3161 6.22153C74.9141 6.54948 75.3771 7.00283 75.7051 7.58158C76.033 8.14104 76.2645 8.79695 76.3996 9.54932C76.5539 10.2824 76.6311 11.0637 76.6311 11.8932V21.1243Z" fill="#272728"/>
<path d="M87.1573 21.4136C85.9805 21.4136 84.9098 21.2111 83.9452 20.8059C82.9999 20.3815 82.18 19.8124 81.4855 19.0986C80.791 18.3656 80.2509 17.536 79.8651 16.61C79.4985 15.6647 79.3152 14.6616 79.3152 13.6005C79.3152 12.173 79.6432 10.8708 80.2991 9.69401C80.955 8.49793 81.8714 7.543 83.0482 6.82921C84.2249 6.09613 85.6043 5.72959 87.1862 5.72959C88.7681 5.72959 90.1282 6.09613 91.2664 6.82921C92.4239 7.543 93.3209 8.48828 93.9575 9.66507C94.5942 10.8419 94.9125 12.1055 94.9125 13.4559C94.9125 13.6874 94.9028 13.9092 94.8835 14.1214C94.8642 14.3143 94.8449 14.4783 94.8257 14.6134H82.7009C82.7588 15.5008 82.9999 16.2821 83.4243 16.9573C83.868 17.6132 84.4275 18.1341 85.1027 18.5199C85.7779 18.8864 86.5013 19.0697 87.273 19.0697C88.1218 19.0697 88.9224 18.8575 89.6748 18.4331C90.4465 18.0087 90.9673 17.4492 91.2374 16.7547L93.9575 17.536C93.6296 18.2691 93.128 18.9347 92.4528 19.5327C91.7969 20.1114 91.0156 20.5744 90.1089 20.9217C89.2022 21.2496 88.2183 21.4136 87.1573 21.4136ZM82.6141 12.5009H91.7583C91.7004 11.6328 91.4496 10.8708 91.0059 10.2149C90.5815 9.53967 90.0317 9.0188 89.3565 8.65226C88.7006 8.26643 87.9675 8.07351 87.1573 8.07351C86.3663 8.07351 85.6332 8.26643 84.958 8.65226C84.3021 9.0188 83.7619 9.53967 83.3375 10.2149C82.9131 10.8708 82.672 11.6328 82.6141 12.5009Z" fill="#272728"/>
<path d="M0.109253 21.1242V0.578735H3.35023V21.1242H0.109253Z" fill="#1E3F84"/>
<path d="M11.2345 6.5977V21.1242H7.99355V0.578735H10.6558L22.2886 15.4236V0.607672H25.5585V21.1242H22.7226L11.2345 6.5977Z" fill="#1E3F84"/>
<path fill-rule="evenodd" clip-rule="evenodd" d="M96 3L52 3L52 0L96 3.8466e-06L96 3Z" fill="#272728"/>
<path fill-rule="evenodd" clip-rule="evenodd" d="M96 25L-2.62268e-07 25L0 22L96 22L96 25Z" fill="#272728"/>
<path d="M99.0592 23.9805L104.029 23.9805L104.029 25.0893L97 25.0893L97 24.1785L102.079 20.1987L97.0099 20.1987L97.0099 19.08L104.029 19.08L104.029 20.0502L99.0592 23.9805Z" fill="#1E3F84"/>
<path d="M104.128 15.3793C104.128 15.7819 104.059 16.1481 103.92 16.4782C103.775 16.8016 103.58 17.0821 103.336 17.3197C103.085 17.5573 102.801 17.742 102.485 17.874C102.161 17.9994 101.818 18.0622 101.455 18.0622C100.967 18.0622 100.521 17.95 100.118 17.7256C99.7093 17.5012 99.3826 17.1877 99.1384 16.7851C98.8876 16.3825 98.7622 15.9106 98.7622 15.3694C98.7622 14.8282 98.8876 14.3629 99.1384 13.9735C99.3826 13.5775 99.706 13.2706 100.109 13.0528C100.511 12.835 100.943 12.7261 101.405 12.7261C101.485 12.7261 101.561 12.7294 101.633 12.736C101.699 12.7426 101.755 12.7492 101.801 12.7558L101.801 16.9039C102.105 16.8841 102.372 16.8015 102.603 16.6563C102.828 16.5045 103.006 16.3132 103.138 16.0822C103.263 15.8512 103.326 15.6036 103.326 15.3396C103.326 15.0492 103.253 14.7754 103.108 14.518C102.963 14.254 102.772 14.0758 102.534 13.9834L102.801 13.0528C103.052 13.165 103.28 13.3366 103.484 13.5676C103.682 13.792 103.841 14.0593 103.96 14.3695C104.072 14.6797 104.128 15.0163 104.128 15.3793ZM101.079 16.9336L101.079 13.8052C100.782 13.825 100.521 13.9108 100.297 14.0626C100.066 14.2078 99.8875 14.3959 99.7621 14.6269C99.6301 14.8513 99.5641 15.1021 99.5641 15.3793C99.5641 15.6499 99.6301 15.9007 99.7621 16.1317C99.8875 16.3561 100.066 16.5409 100.297 16.6861C100.521 16.8313 100.782 16.9138 101.079 16.9336Z" fill="#1E3F84"/>
<path d="M98.8513 5.52798L98.8513 4.48848L104.029 6.66648L104.029 7.59708L101.693 8.52768L104.029 9.45828L104.029 10.3889L98.8513 12.5768L98.8513 11.5373L102.97 9.87408L101.059 9.14148L98.8612 10.0325L98.8612 9.11178L100.475 8.52768L98.8612 7.95348L98.8612 7.03278L101.059 7.91388L102.97 7.18128L98.8513 5.52798Z" fill="#1E3F84"/>
<path d="M104.128 2.04929C104.128 2.48489 104.059 2.89739 103.92 3.28679C103.775 3.67619 103.56 4.00949 103.277 4.28669L102.544 3.88079C102.808 3.58379 102.999 3.28679 103.118 2.98979C103.237 2.68619 103.296 2.38589 103.296 2.08889C103.296 1.78529 103.24 1.53779 103.128 1.34639C103.009 1.15499 102.838 1.05929 102.613 1.05929C102.448 1.05929 102.326 1.10879 102.247 1.20779C102.168 1.30679 102.098 1.45199 102.039 1.64339C101.98 1.82819 101.914 2.05259 101.841 2.31659C101.729 2.68619 101.613 2.99639 101.495 3.24719C101.369 3.49799 101.217 3.68609 101.039 3.81149C100.861 3.93689 100.633 3.99959 100.356 3.99959C100.019 3.99959 99.7324 3.91379 99.4948 3.74219C99.2572 3.57059 99.0757 3.33299 98.9503 3.02939C98.8249 2.71919 98.7622 2.36279 98.7622 1.96019C98.7622 1.58399 98.8216 1.23749 98.9404 0.920689C99.0526 0.597289 99.2308 0.313488 99.475 0.0692881L100.198 0.534588C99.9865 0.765588 99.8314 1.00319 99.7324 1.24739C99.6334 1.48499 99.5839 1.74239 99.5839 2.01959C99.5839 2.17799 99.6037 2.32979 99.6433 2.47499C99.6763 2.62019 99.7423 2.74229 99.8413 2.84129C99.9337 2.93369 100.066 2.97989 100.237 2.97989C100.376 2.97989 100.488 2.94029 100.574 2.86109C100.66 2.78189 100.732 2.66309 100.792 2.50469C100.851 2.34629 100.917 2.15159 100.99 1.92059C101.108 1.51799 101.227 1.17479 101.346 0.890987C101.458 0.607187 101.607 0.389389 101.792 0.237589C101.97 0.0791887 102.217 -1.16721e-05 102.534 -1.1686e-05C103.036 -1.17079e-05 103.428 0.188089 103.712 0.564289C103.989 0.933889 104.128 1.42889 104.128 2.04929Z" fill="#1E3F84"/>
</svg>
